<svg width="33" height="34" viewBox="0 0 33 34" fill="none" xmlns="http://www.w3.org/2000/svg">
<path d="M0.5 22.1569C0.554799 20.8512 0.70094 19.7694 1.19413 18.7622C1.92479 17.2886 3.23998 16.7291 4.73783 16.8969C5.61462 16.9902 6.41832 17.3632 7.22204 17.699C8.3363 18.1466 9.46884 18.4823 10.6744 18.3891C11.2955 18.3518 11.8617 18.2026 12.4097 17.9228C12.9212 17.6616 13.1769 17.2513 13.1221 16.8036C13.0673 16.3933 12.7933 16.1322 12.3915 16.0949C9.87068 15.8897 7.67872 14.8824 5.779 13.1851C5.10315 12.5695 4.53689 11.8608 4.09849 11.0401C3.2217 9.38001 3.18516 7.66403 4.02541 6.00398C5.37713 3.3367 7.44125 1.50877 10.3456 0.818636C11.8983 0.445589 13.4327 0.688044 14.8574 1.43414C16.2274 2.16158 16.7023 3.50457 16.5562 4.95945C16.4831 5.7615 16.1909 6.48893 15.8986 7.21637C15.5333 8.11168 15.2228 9.04429 15.1314 10.0142C15.0401 11.0214 15.168 12.01 15.6246 12.9053C15.8256 13.297 16.0996 13.5768 16.5745 13.5581C17.0311 13.5395 17.3234 13.241 17.3599 12.7934C17.5974 10.0328 18.6751 7.66401 20.5566 5.68686C21.2507 4.95942 22.0544 4.39988 22.986 4.02684C24.2647 3.52322 25.5433 3.50457 26.8037 4.08279C29.5985 5.35115 31.4616 7.47752 32.2836 10.4992C32.7038 12.066 32.4846 13.6141 31.8635 15.0876C31.2425 16.5239 29.982 17.2326 28.4294 17.1021C27.5526 17.0275 26.7672 16.6731 25.9634 16.3747C25.1597 16.0949 24.3377 15.8151 23.5157 15.6659C22.5659 15.498 21.5795 15.554 20.6844 16.0203C20.4835 16.1322 20.2826 16.2627 20.1182 16.4306C19.8442 16.7104 19.7711 17.0461 19.9173 17.4192C20.0451 17.7736 20.3374 17.8855 20.6844 17.9228C22.986 18.1093 25.0136 19.0046 26.822 20.4595C27.5526 21.0564 28.1737 21.7465 28.6669 22.5672C29.7446 24.3579 29.8725 26.2044 28.9226 28.0696C27.6074 30.6437 25.5981 32.397 22.8399 33.1431C21.3055 33.5534 19.7894 33.3482 18.3463 32.6768C16.9581 32.0426 16.2822 30.7556 16.4101 29.2075C16.4649 28.536 16.6475 27.8831 16.9033 27.2489C17.3051 26.2604 17.707 25.2531 17.8349 24.1713C17.9445 23.1641 17.9262 22.1569 17.4513 21.2243C17.3599 21.0564 17.2504 20.8885 17.1225 20.7393C16.8485 20.4409 16.5014 20.3476 16.1178 20.4781C15.7525 20.6087 15.6612 20.9258 15.6064 21.2802C15.515 21.9517 15.442 22.6232 15.2593 23.276C14.6017 25.6262 13.4327 27.622 11.4964 29.1142C10.5466 29.8416 9.46883 30.2893 8.26324 30.3266C7.38645 30.3639 6.56445 30.14 5.79726 29.7483C3.20342 28.4054 1.44987 26.335 0.682676 23.4438C0.573077 22.9402 0.554799 22.4367 0.5 22.1569Z" fill="#081C3D"/>
</svg>
