<svg width="572" height="586" viewBox="0 0 572 586" fill="none" xmlns="http://www.w3.org/2000/svg">
<path d="M303.187 170.184V306.184C303.187 314.184 299.187 321.684 292.487 326.184L196.487 390.184C185.487 397.584 170.587 394.584 163.187 383.484C155.787 372.384 158.787 357.584 169.887 350.184L255.187 293.384V170.184C255.187 164.02 257.486 158.414 261.277 154.173C261.874 153.505 262.508 152.871 263.176 152.274C267.417 148.483 273.023 146.184 279.187 146.184C285.338 146.184 290.932 148.472 295.169 152.248C295.858 152.861 296.51 153.514 297.124 154.202C300.899 158.439 303.187 164.034 303.187 170.184Z" fill="white"/>
<path fill-rule="evenodd" clip-rule="evenodd" d="M303.187 170.184V306.184C303.187 314.184 299.187 321.684 292.487 326.184L196.487 390.184C185.487 397.584 170.587 394.584 163.187 383.484C155.787 372.384 158.787 357.584 169.887 350.184L255.187 293.384V170.184C255.187 164.02 257.486 158.414 261.277 154.173C261.874 153.505 262.508 152.871 263.176 152.274C267.417 148.483 273.023 146.184 279.187 146.184C285.338 146.184 290.932 148.472 295.169 152.248C295.858 152.861 296.51 153.514 297.124 154.202C300.899 158.439 303.187 164.034 303.187 170.184Z" fill="white"/>
<path fill-rule="evenodd" clip-rule="evenodd" d="M98.1678 487.204C68.2695 457.305 46.5303 420.773 34.3834 381.066C27.0254 357.014 23.1872 331.797 23.1872 306.184C23.1872 266.433 32.4327 227.634 49.7329 192.664C40.6484 183.589 32.6769 175.621 29.6451 172.567C-9.88167 133.04 -9.88173 69.1719 29.6451 29.6451C69.1719 -9.88168 133.04 -9.88164 172.567 29.6452L204.303 61.3811C228.356 54.0227 253.574 50.1842 279.187 50.1842C304.8 50.1842 330.017 54.0224 354.069 61.3804L385.804 29.6451C425.331 -9.8817 489.199 -9.8817 528.726 29.6451C568.253 69.1719 568.253 133.04 528.726 172.567L508.637 192.656C525.94 227.628 535.187 266.429 535.187 306.184C535.187 326.888 532.679 347.333 527.832 367.113C554.84 389.859 572 423.926 572 462C572 530.483 516.483 586 448 586C413.494 586 382.28 571.906 359.801 549.161C334.037 557.709 306.843 562.184 279.187 562.184C240.026 562.184 201.789 553.211 167.227 536.404L142.118 572.263C131.966 586.762 112.05 590.274 97.5505 580.122C83.0515 569.969 79.5398 550.053 89.6921 535.554L113.596 501.417C108.281 496.908 103.133 492.168 98.1678 487.204ZM74.1687 341.281C72.1969 329.763 71.1872 318.026 71.1872 306.184C71.1872 279.477 76.3237 253.299 86.0495 228.971C96.4126 203.05 111.986 179.229 132.109 159.106C162.743 128.472 201.948 108.381 244.088 101.166C255.607 99.194 267.345 98.1842 279.187 98.1842C291.029 98.1842 302.766 99.1939 314.284 101.166C356.425 108.38 395.631 128.471 426.265 159.106C446.387 179.228 461.961 203.048 472.324 228.969C482.05 253.297 487.187 279.476 487.187 306.184C487.187 318.026 486.177 329.765 484.205 341.283C484.092 341.944 483.976 342.604 483.856 343.263C472.505 339.84 460.467 338 448 338C379.517 338 324 393.517 324 462C324 477.962 327.016 493.22 332.509 507.234C315.257 511.81 297.344 514.184 279.187 514.184C252.479 514.184 226.3 509.047 201.972 499.321C176.051 488.958 152.231 473.384 132.109 453.262C101.474 422.628 81.3827 383.422 74.1687 341.281ZM448 368C456.084 368 462.615 374.497 462.615 382.538V447.962H528.385C536.469 447.962 543 454.458 543 462.5C543 470.542 536.469 477.038 528.385 477.038H462.615V542.462C462.615 550.503 456.084 557 448 557C439.916 557 433.385 550.503 433.385 542.462V477.038H367.615C359.531 477.038 353 470.542 353 462.5C353 454.458 359.531 447.962 367.615 447.962H433.385V382.538C433.385 374.497 439.916 368 448 368Z" fill="white"/>
</svg>
