<svg width="37" height="27" viewBox="0 0 37 27" fill="none" xmlns="http://www.w3.org/2000/svg">
<path d="M10.558 26.1073C10.9388 25.5321 11.3285 24.9835 11.6916 24.4171C12.2318 23.5764 12.6657 22.6915 12.834 21.6915C12.9757 20.8509 12.8871 20.0279 12.5949 19.196C11.7181 19.5323 10.9122 19.9836 10.1152 20.488C6.81186 15.4528 3.50853 10.4175 0.1875 5.35574C4.55355 2.50627 9.31813 0.762983 14.4901 0.205478C22.3189 -0.635204 29.5454 1.10808 36.1875 5.35574C32.8665 10.4175 29.572 15.4528 26.2598 20.4969C26.0296 20.3641 25.817 20.2314 25.6045 20.1075C25.6045 20.4172 25.6045 20.7093 25.6045 21.0101C25.5956 22.2402 25.1882 23.3552 24.6126 24.4171C24.3115 24.9658 23.9661 25.4879 23.6296 26.0188C23.5941 26.0719 23.5144 26.1339 23.4524 26.1427C22.7617 26.1516 22.0709 26.1516 21.3358 26.1516C21.3978 26.0542 21.4421 25.9923 21.4864 25.9215C22.1152 25.0277 22.744 24.1428 23.1956 23.134C23.7713 21.8508 23.8864 20.55 23.4082 19.2137C23.3639 19.081 23.293 19.0102 23.1602 18.9571C22.0709 18.5677 20.9462 18.3111 19.7949 18.1784C19.7506 18.1695 19.6975 18.1784 19.6266 18.1784C19.7417 18.5058 19.8657 18.8155 19.9543 19.1341C20.406 20.7004 20.2554 22.2225 19.5558 23.6738C19.1661 24.4791 18.6702 25.2401 18.2185 26.0188C18.1919 26.0719 18.1122 26.1339 18.0591 26.1339C17.3595 26.1427 16.6687 26.1427 15.9159 26.1427C16.0576 25.948 16.1639 25.7799 16.279 25.6206C16.9078 24.7268 17.5189 23.8242 17.9174 22.7977C18.4842 21.3553 18.3779 19.9482 17.7314 18.5677C17.5189 18.1164 17.5277 18.081 17.0406 18.143C16.1816 18.258 15.3314 18.4173 14.4812 18.5589C14.4458 18.5677 14.4192 18.5854 14.4015 18.5943C14.5078 19.0368 14.6318 19.4615 14.7115 19.8863C14.9329 21.1429 14.7203 22.3464 14.2333 23.5145C13.8524 24.4083 13.3565 25.2312 12.8074 26.0277C12.772 26.0808 12.6923 26.1427 12.6303 26.1427C11.9572 26.1516 11.2753 26.1427 10.6023 26.1427C10.5934 26.1339 10.5846 26.125 10.558 26.1073ZM22.3454 16.7005C21.6015 15.1608 21.6281 13.5856 21.9115 11.9573C21.5572 11.9573 21.2119 11.9573 20.8399 11.9573C21.5307 10.1521 22.2037 8.37335 22.9034 6.5504C23.5941 8.3822 24.2672 10.1521 24.9491 11.9573C24.6126 11.9573 24.3115 11.9573 24.0104 11.9573C23.9041 11.9573 23.8244 11.975 23.7978 12.1077C23.6207 13.0635 23.5056 14.0369 23.7801 14.9749C24.0281 15.8245 24.4 16.6297 24.7189 17.4527C24.7366 17.497 24.7809 17.5501 24.834 17.5678C25.0731 17.6828 25.3211 17.789 25.5779 17.904C28.1993 13.913 30.8207 9.93083 33.451 5.9398C23.727 0.311652 11.6739 0.771823 2.90633 5.94866C2.96832 6.046 3.02145 6.1345 3.08344 6.23184C4.97865 9.12556 6.865 12.0193 8.7602 14.913C9.38898 15.8776 10.0178 16.8333 10.6465 17.789C10.682 17.8421 10.7794 17.904 10.8148 17.8863C11.1602 17.7359 11.5056 17.5766 11.8598 17.4173C11.4967 16.5501 11.0805 15.7183 10.9831 14.7714C10.8945 13.8334 10.9211 12.9042 11.1336 11.9485C10.7617 11.9485 10.4163 11.9485 10.0443 11.9485C10.7351 10.1432 11.4082 8.37337 12.1078 6.54157C12.7986 8.37337 13.4716 10.1432 14.1536 11.9485C13.8082 11.9485 13.5071 11.9485 13.2059 11.9485C13.0908 11.9485 13.0288 11.9839 13.0023 12.1077C12.7277 13.4882 12.7631 14.8333 13.3654 16.1342C13.4716 16.3554 13.5602 16.5766 13.631 16.7625C14.6849 16.5678 15.7034 16.382 16.7395 16.1961C16.465 15.5413 16.3322 14.8333 16.341 14.1166C16.3499 13.3998 16.4119 12.6918 16.4561 11.9573C16.1462 11.9573 15.8096 11.9573 15.4377 11.9573C16.1285 10.1521 16.8104 8.37336 17.5012 6.55926C18.1919 8.38221 18.865 10.1609 19.5381 11.9396C19.5026 11.9573 19.4849 11.9662 19.4761 11.9662C19.1927 11.9662 18.9093 11.975 18.6259 11.9662C18.4753 11.9662 18.4133 12.0104 18.3868 12.1608C18.1388 13.4617 18.1476 14.736 18.679 15.9749C18.7587 16.1607 18.8473 16.2227 19.0421 16.2315C19.6709 16.2846 20.2997 16.3466 20.9285 16.4351C21.389 16.4882 21.8406 16.6032 22.3454 16.7005Z" fill="#081C3D"/>
</svg>
