<svg width="141" height="138" viewBox="0 0 141 138" fill="none" xmlns="http://www.w3.org/2000/svg">
<path d="M70.3153 94.5208C55.8842 94.5208 44.2704 83.1944 44.2704 69.1083C44.2704 55.0222 55.8842 43.6958 70.3153 43.6958C84.7464 43.6958 96.3603 55.0222 96.3603 69.2808C96.3603 83.1944 84.7464 94.4633 70.3153 94.5208ZM70.3728 86.6441C71.8677 86.6441 73.3625 86.5291 74.8574 86.6441C76.1223 86.7591 76.6397 86.4716 76.5822 84.9768C76.4672 82.0445 76.5822 79.1123 76.5247 76.1801C76.5247 75.3177 76.7547 75.0302 77.6746 75.0877C80.8368 75.1452 83.9415 75.0877 87.1037 75.0877C88.0236 75.0877 88.3686 74.8577 88.3111 73.8803C88.2536 70.6607 88.2536 67.3835 88.3111 64.1638C88.3111 63.6792 88.2404 63.3783 88.0571 63.1981C87.8706 63.0149 87.5675 62.9564 87.1037 62.9564C85.5514 62.9851 83.999 62.9851 82.4538 62.9851C80.9087 62.9851 79.3707 62.9851 77.8471 63.0139C77.1484 63.0139 76.7729 62.8964 76.6156 62.4514C76.5528 62.2738 76.5247 62.0441 76.5247 61.749C76.5822 58.7593 76.5247 55.7696 76.5822 52.7799C76.5822 52.2617 76.5338 51.9213 76.3255 51.7158C76.1408 51.5337 75.8306 51.4575 75.3174 51.4575C72.0402 51.515 68.7055 51.515 65.4283 51.4575C64.5084 51.4575 64.1634 51.6875 64.2209 52.6649C64.2497 54.1885 64.2497 55.7121 64.2497 57.2285V57.2297C64.2497 58.7457 64.2497 60.2546 64.2784 61.749C64.2784 62.7264 64.0484 62.9564 63.071 62.9564C61.2284 62.9229 59.4052 62.9284 57.5789 62.9389C57.318 62.9404 57.0567 62.942 56.7956 62.9436C55.748 62.95 54.6982 62.9564 53.642 62.9564C52.7795 62.9564 52.4921 63.1864 52.4921 64.1063C52.5496 67.326 52.5496 70.6032 52.4921 73.8228C52.4921 74.1015 52.5183 74.3203 52.5735 74.4916C52.7348 74.992 53.1438 75.0877 53.8719 75.0877C56.7467 75.0302 59.6789 75.1452 62.5536 75.0302C63.2446 75.0002 63.7315 75.0643 64.0226 75.3457C64.2885 75.6029 64.3908 76.0413 64.3359 76.7551C64.2744 78.263 64.2787 79.771 64.2872 81.2878C64.2878 81.3889 64.2884 81.4901 64.289 81.5913C64.296 82.8081 64.3031 84.0309 64.2784 85.2642C64.2614 85.5888 64.2849 85.8424 64.3535 86.0369C64.516 86.497 64.9309 86.627 65.6583 86.5866C67.1531 86.5866 68.763 86.6441 70.3728 86.6441Z" fill="#E20714"/>
<path fill-rule="evenodd" clip-rule="evenodd" d="M141 68.8927C141 98.0423 122.314 123.972 94.0845 133.861C122.257 123.857 140.942 97.9848 140.942 68.8352C140.939 63.5406 140.313 58.2917 139.095 53.1919C140.329 58.31 140.974 63.5775 141 68.8927ZM130.306 32.4987C134.376 38.8952 137.335 45.8916 139.095 53.1919C137.35 45.8872 134.391 38.8883 130.306 32.4987ZM14.2248 110.461C4.57039 97.9296 -0.00429324 83.3677 2.79295e-06 68.9894C0.00108989 83.358 4.57607 97.9156 14.2248 110.461ZM70.2585 86.2416C69.8552 86.2416 69.4518 86.238 69.0493 86.2344C67.8456 86.2237 66.6499 86.213 65.4865 86.2991C64.9424 86.3294 64.5731 86.2642 64.3535 86.0369C64.2849 85.8424 64.2614 85.5888 64.2784 85.2642C64.3031 84.0309 64.296 82.8081 64.289 81.5913C64.2884 81.4901 64.2878 81.3889 64.2872 81.2878C64.2787 79.771 64.2744 78.263 64.3359 76.7551C64.3908 76.0413 64.2885 75.6029 64.0226 75.3457C63.7889 74.8198 63.2648 74.7044 62.3818 74.7428C60.7404 74.8084 59.099 74.7991 57.447 74.7897C56.2056 74.7827 54.9581 74.7756 53.7001 74.8002C53.1743 74.8002 52.7988 74.7439 52.5735 74.4916C52.5183 74.3203 52.4921 74.1015 52.4921 73.8228C52.5496 70.6032 52.5496 67.326 52.4921 64.1063C52.4921 63.1864 52.7795 62.9564 53.642 62.9564C54.6982 62.9564 55.748 62.95 56.7956 62.9436C57.0567 62.942 57.318 62.9404 57.5789 62.9389C59.4052 62.9284 61.2284 62.9229 63.071 62.9564C64.0484 62.9564 64.2784 62.7264 64.2784 61.749C64.2497 60.2546 64.2497 58.7457 64.2497 57.2297V57.2285C64.2497 55.7121 64.2497 54.1885 64.2209 52.6649C64.1634 51.6875 64.5084 51.4575 65.4283 51.4575C68.7055 51.515 72.0402 51.515 75.3174 51.4575C75.8306 51.4575 76.1408 51.5337 76.3255 51.7158C76.3913 51.9117 76.4104 52.167 76.4104 52.4924C76.3858 53.7737 76.3928 55.055 76.3999 56.3363C76.4092 58.0447 76.4186 59.7531 76.3529 61.4615C76.3529 61.9517 76.4303 62.2612 76.6156 62.4514C76.7729 62.8964 77.1484 63.0139 77.8471 63.0139C79.3707 62.9851 80.9087 62.9851 82.4538 62.9851C83.999 62.9851 85.5514 62.9851 87.1037 62.9564C87.5675 62.9564 87.8706 63.0149 88.0571 63.1981C88.1147 63.369 88.1393 63.5908 88.1393 63.8763C88.0818 67.096 88.0818 70.3732 88.1393 73.5929C88.1393 74.5703 87.8518 74.8002 86.9319 74.8002C84.8259 74.762 82.7454 74.7747 80.6565 74.7874H80.6554H80.6543H80.6532H80.6521H80.651H80.6498H80.6487C80.5184 74.7882 80.3881 74.789 80.2577 74.7898C79.3424 74.7953 78.425 74.8002 77.5028 74.8002C76.6404 74.8002 76.3529 75.0302 76.3529 75.8926C76.3776 77.1493 76.3705 78.406 76.3635 79.6626C76.3541 81.3382 76.3447 83.0137 76.4104 84.6893C76.4679 86.1266 75.9505 86.4141 74.6856 86.3566C73.2152 86.2027 71.7349 86.1642 70.2585 86.2416ZM70.3153 94.5208C55.8842 94.5208 44.2704 83.1944 44.2704 69.1083C44.2704 55.0222 55.8842 43.6958 70.3153 43.6958C84.7464 43.6958 96.3603 55.0222 96.3603 69.2808C96.3603 83.1944 84.7464 94.4633 70.3153 94.5208Z" fill="#E20714"/>
<path fill-rule="evenodd" clip-rule="evenodd" d="M80.6498 74.7874H80.6487C80.5184 74.7882 80.3881 74.789 80.2577 74.7898C80.3884 74.789 80.5192 74.7882 80.6498 74.7874Z" fill="#E20714"/>
<path fill-rule="evenodd" clip-rule="evenodd" d="M118.462 71.0199C118.462 61.8208 116.967 55.1515 113.863 48.8846C103.284 27.2092 78.1586 16.8602 54.8734 24.5645C25.3787 34.281 13.1324 69.0076 30.2083 94.5927C40.9597 110.749 60.3353 118.683 80.1134 114.946C102.249 110.806 118.52 91.143 118.462 71.0199ZM44.2704 69.1083C44.2704 83.1944 55.8842 94.5208 70.3153 94.5208C84.7464 94.4633 96.3603 83.1944 96.3603 69.2808C96.3603 55.0222 84.7464 43.6958 70.3153 43.6958C55.8842 43.6958 44.2704 55.0222 44.2704 69.1083Z" fill="#FCFDFE"/>
<path d="M88.1393 73.5929C88.0818 70.3732 88.0818 67.096 88.1393 63.8763C88.1393 63.5908 88.1147 63.369 88.0571 63.1981C87.8706 63.0149 87.5675 62.9564 87.1037 62.9564C85.5514 62.9851 83.999 62.9851 82.4538 62.9851C80.9087 62.9851 79.3707 62.9851 77.8471 63.0139C77.1484 63.0139 76.7729 62.8964 76.6156 62.4514C76.4303 62.2612 76.3529 61.9517 76.3529 61.4615C76.4186 59.7531 76.4092 58.0447 76.3999 56.3363C76.3928 55.055 76.3858 53.7737 76.4104 52.4924C76.4104 52.167 76.3913 51.9117 76.3255 51.7158C76.1408 51.5337 75.8306 51.4575 75.3174 51.4575C72.0402 51.515 68.7055 51.515 65.4283 51.4575C64.5084 51.4575 64.1634 51.6875 64.2209 52.6649C64.2497 54.1885 64.2497 55.7121 64.2497 57.2285V57.2297C64.2497 58.7457 64.2497 60.2546 64.2784 61.749C64.2784 62.7264 64.0484 62.9564 63.071 62.9564C61.2284 62.9229 59.4052 62.9284 57.5789 62.9389L56.7956 62.9436C55.748 62.95 54.6982 62.9564 53.642 62.9564C52.7795 62.9564 52.4921 63.1864 52.4921 64.1063C52.5496 67.326 52.5496 70.6032 52.4921 73.8228C52.4921 74.1015 52.5183 74.3203 52.5735 74.4916C52.7988 74.7439 53.1743 74.8002 53.7001 74.8002C54.9581 74.7756 56.2056 74.7827 57.447 74.7897C59.099 74.7991 60.7404 74.8084 62.3818 74.7428C63.2648 74.7044 63.7889 74.8198 64.0226 75.3457C64.2885 75.6029 64.3908 76.0413 64.3359 76.7551C64.2744 78.263 64.2787 79.771 64.2872 81.2878L64.289 81.5913C64.296 82.8081 64.3031 84.0309 64.2784 85.2642C64.2614 85.5888 64.2849 85.8424 64.3535 86.0369C64.5731 86.2642 64.9424 86.3294 65.4865 86.2991C66.6499 86.213 67.8456 86.2237 69.0493 86.2344C69.4518 86.238 69.8552 86.2416 70.2585 86.2416C71.7349 86.1642 73.2152 86.2027 74.6856 86.3566C75.9505 86.4141 76.4679 86.1266 76.4104 84.6893C76.3447 83.0137 76.3541 81.3382 76.3635 79.6626C76.3705 78.406 76.3776 77.1493 76.3529 75.8926C76.3529 75.0302 76.6404 74.8002 77.5028 74.8002C78.425 74.8002 79.3424 74.7953 80.2577 74.7898L80.6487 74.7874H80.6498H80.651H80.6521H80.6532H80.6543H80.6554H80.6565C82.7454 74.7747 84.8259 74.762 86.9319 74.8002C87.8518 74.8002 88.1393 74.5703 88.1393 73.5929Z" fill="#FCFDFE"/>
<path fill-rule="evenodd" clip-rule="evenodd" d="M130.306 32.4987C110.47 1.62418 69.9944 -8.95479 37.1651 8.17854L37.1551 8.18377C13.2088 20.7042 0.0072817 44.5824 2.79295e-06 68.9894C0.00108989 83.358 4.57607 97.9156 14.2248 110.461C32.6805 134.436 65.2798 143.98 94.0845 133.861C122.257 123.857 140.942 97.9848 140.942 68.8352C140.939 63.5406 140.313 58.2917 139.095 53.1919C137.335 45.8916 134.376 38.8952 130.306 32.4987ZM113.863 48.8846C116.967 55.1515 118.462 61.8208 118.462 71.0199C118.52 91.143 102.249 110.806 80.1134 114.946C60.3353 118.683 40.9597 110.749 30.2083 94.5927C13.1324 69.0076 25.3787 34.281 54.8734 24.5645C78.1586 16.8602 103.284 27.2092 113.863 48.8846Z" fill="#E20714"/>
</svg>
