<svg width="80" height="241" viewBox="0 0 80 241" fill="none" xmlns="http://www.w3.org/2000/svg">
<path d="M72.5 104C72.5 112.62 69.0759 120.886 62.981 126.981C56.886 133.076 48.6195 136.5 40 136.5C31.3805 136.5 23.114 133.076 17.019 126.981C10.9241 120.886 7.5 112.62 7.5 104C7.5 95.3805 10.9241 87.114 17.019 81.019C23.114 74.9241 31.3805 71.5 40 71.5C48.6195 71.5 56.886 74.9241 62.981 81.019C69.0759 87.114 72.5 95.3805 72.5 104ZM0 104C0 114.609 4.21427 124.783 11.7157 132.284C19.2172 139.786 29.3913 144 40 144C50.6087 144 60.7828 139.786 68.2843 132.284C75.7857 124.783 80 114.609 80 104C80 93.3913 75.7857 83.2172 68.2843 75.7157C60.7828 68.2143 50.6087 64 40 64C29.3913 64 19.2172 68.2143 11.7157 75.7157C4.21427 83.2172 0 93.3913 0 104ZM36.25 82.75V104C36.25 105.25 36.875 106.422 37.9219 107.125L52.9219 117.125C54.6406 118.281 56.9687 117.812 58.125 116.078C59.2813 114.344 58.8125 112.031 57.0781 110.875L43.75 102V82.75C43.75 80.6719 42.0781 79 40 79C37.9219 79 36.25 80.6719 36.25 82.75Z" fill="white"/>
<path d="M36.5708 239.535C38.4675 241.488 41.5477 241.488 43.4444 239.535L72.5775 209.541C74.4742 207.589 74.4742 204.417 72.5775 202.465C70.6808 200.512 67.6006 200.512 65.7039 202.465L40 228.928L14.2961 202.48C12.3994 200.527 9.3192 200.527 7.42251 202.48C5.52583 204.433 5.52583 207.604 7.42251 209.557L36.5556 239.551L36.5708 239.535Z" fill="white"/>
<path d="M40 180C42.7656 180 45 182.323 45 185.198V229.212C45 232.087 42.7656 234.41 40 234.41C37.2344 234.41 35 232.087 35 229.212V185.198C35 182.323 37.2344 180 40 180Z" fill="white"/>
<path d="M40 140.78C42.7656 140.78 45 143.103 45 145.979V162.776C45 165.651 42.7656 167.974 40 167.974C37.2344 167.974 35 165.651 35 162.776V145.979C35 143.103 37.2344 140.78 40 140.78Z" fill="white"/>
<path d="M40 42.3189C42.7656 42.3189 45 44.6419 45 47.5173V64.3142C45 67.1896 42.7656 69.5126 40 69.5126C37.2344 69.5126 35 67.1896 35 64.3142V47.5173C35 44.6419 37.2344 42.3189 40 42.3189Z" fill="white"/>
<path d="M40 18C42.7656 18 45 20.3231 45 23.1984V29.4599C45 32.3352 42.7656 34.6583 40 34.6583C37.2344 34.6583 35 32.3352 35 29.4599V23.1984C35 20.3231 37.2344 18 40 18Z" fill="white"/>
<path d="M40 2.99902e-06C42.7656 2.99902e-06 45 2.32306 45 5.19845V5.31418C45 8.18957 42.7656 10.5126 40 10.5126C37.2344 10.5126 35 8.18957 35 5.31418V5.19845C35 2.32306 37.2344 2.99902e-06 40 2.99902e-06Z" fill="white"/>
</svg>
