<svg width="191" height="191" viewBox="0 0 191 191" fill="none" xmlns="http://www.w3.org/2000/svg">
<path d="M34.851 82.7987C24.7131 76.6835 20.9586 73.27 16.4586 68.4156C10.8408 62.3552 7.73389 53.0094 11.1563 41.4443C14.3803 30.5496 25.7972 19.945 33.6353 15.1939C42.8042 9.63595 52.6779 9.19007 59.875 10.5532C66.044 11.7215 70.0552 14.5731 71.7536 18.8763C73.4521 23.1795 69.8937 33.1611 68.3444 37.9671C66.2192 44.5596 64.9401 56.347 65.4907 58.2619C66.6468 62.2834 72.6743 62.5117 73.9757 58.784C75.2771 55.0562 74.1091 50.4046 76.7414 41.7309C79.3737 33.0572 83.8529 22.3301 79.3856 13.6125C76.607 8.1903 71.4447 3.79502 61.5098 1.70895C53.8812 0.107146 44.8112 0.259262 34.1489 4.63253C23.3143 9.07628 9.83698 22.3923 5.14271 32.3279C-1.25836 45.8762 -0.528214 57.2174 4.21953 66.3644C8.96734 75.5114 16.2602 81.7105 25.2484 87.5988C38.6114 96.3531 51.0407 99.7315 60.4314 102.47C62.1388 102.967 68.5522 105.186 69.5082 99.1149C70.1745 94.8833 65.1063 93.9674 62.3947 93.4721C55.6048 92.232 41.6575 86.9043 34.851 82.7987Z" fill="white"/>
<path d="M108.411 35.0609C114.526 24.923 117.94 21.1686 122.794 16.6686C128.855 11.0507 138.201 7.94385 149.766 11.3663C160.66 14.5903 171.265 26.0071 176.016 33.8452C181.574 43.0142 182.02 52.8879 180.657 60.085C179.489 66.2539 176.637 70.2651 172.334 71.9636C168.03 73.6621 158.049 70.1036 153.243 68.5544C146.65 66.4292 134.863 65.1501 132.948 65.7006C128.927 66.8568 128.698 72.8842 132.426 74.1857C136.154 75.4871 140.805 74.3191 149.479 76.9514C158.153 79.5837 168.88 84.0629 177.597 79.5956C183.02 76.817 187.415 71.6547 189.501 61.7198C191.103 54.0912 190.951 45.0212 186.577 34.3588C182.134 23.5243 168.818 10.0469 158.882 5.35267C145.334 -1.0484 133.993 -0.318251 124.846 4.42949C115.699 9.1773 109.499 16.4702 103.611 25.4584C94.8569 38.8214 91.4785 51.2507 88.7404 60.6413C88.2425 62.3487 86.0239 68.7622 92.095 69.7181C96.3267 70.3845 97.2426 65.3163 97.7378 62.6047C98.978 55.8148 104.306 41.8675 108.411 35.0609Z" fill="white"/>
<path d="M156.149 108.621C166.287 114.736 170.041 118.15 174.541 123.004C180.159 129.065 183.266 138.411 179.844 149.976C176.62 160.87 165.203 171.475 157.365 176.226C148.196 181.784 138.322 182.23 131.125 180.867C124.956 179.698 120.945 176.847 119.246 172.544C117.548 168.24 121.106 158.259 122.656 153.453C124.781 146.86 126.06 135.073 125.509 133.158C124.353 129.137 118.326 128.908 117.024 132.636C115.723 136.364 116.891 141.015 114.259 149.689C111.626 158.363 107.147 169.09 111.614 177.807C114.393 183.23 119.555 187.625 129.49 189.711C137.119 191.313 146.189 191.161 156.851 186.787C167.686 182.344 181.163 169.028 185.857 159.092C192.258 145.544 191.528 134.203 186.78 125.056C182.033 115.909 174.74 109.709 165.752 103.821C152.389 95.0668 139.959 91.6885 130.569 88.9503C128.861 88.4525 122.448 86.2338 121.492 92.305C120.825 96.5367 125.894 97.4525 128.605 97.9478C135.395 99.1879 149.342 104.516 156.149 108.621Z" fill="white"/>
<path d="M82.5887 156.359C76.4735 166.497 73.06 170.251 68.2056 174.751C62.1453 180.369 52.7994 183.476 41.2344 180.054C30.3396 176.83 19.7351 165.413 14.9839 157.575C9.42599 148.406 8.9801 138.532 10.3432 131.335C11.5115 125.166 14.3632 121.155 18.6663 119.456C22.9695 117.758 32.9511 121.316 37.7572 122.866C44.3496 124.991 56.137 126.27 58.0519 125.719C62.0734 124.563 62.3017 118.536 58.574 117.234C54.8463 115.933 50.1947 117.101 41.5209 114.469C32.8473 111.836 22.1202 107.357 13.4025 111.824C7.98034 114.603 3.58505 119.765 1.49898 129.7C-0.10282 137.329 0.0492992 146.399 4.42257 157.061C8.86631 167.896 22.1823 181.373 32.118 186.067C45.6662 192.468 57.0074 191.738 66.1545 186.99C75.3014 182.243 81.5005 174.95 87.3888 165.962C96.1431 152.599 99.5215 140.169 102.26 130.779C102.757 129.071 104.976 122.658 98.905 121.702C94.6733 121.035 93.7574 126.104 93.2622 128.815C92.022 135.605 86.6944 149.552 82.5887 156.359Z" fill="white"/>
<path d="M99.3107 108.691C92.3031 110.777 84.9314 106.788 82.8455 99.78C80.7596 92.7725 84.7494 85.4007 91.7569 83.3148C98.7645 81.2289 106.136 85.2187 108.222 92.2262C110.308 99.2338 106.318 106.606 99.3107 108.691Z" fill="white"/>
</svg>
