<svg width="34" height="28" viewBox="0 0 34 28" fill="none" xmlns="http://www.w3.org/2000/svg">
<path d="M25.1847 20.2778C25.2354 20.8768 25.3198 21.4505 25.3282 22.0327C25.3367 23.0788 25.0749 24.0744 24.6021 24.994C24.1968 25.787 23.7155 26.5463 23.2596 27.3225C23.2258 27.3816 23.133 27.4322 23.0654 27.4322C22.3478 27.4406 21.6301 27.4406 20.8617 27.4406C20.9377 27.3394 20.9884 27.2635 21.0391 27.1875C21.7145 26.2426 22.39 25.2892 22.8544 24.2178C23.3863 22.9944 23.5298 21.7458 23.1245 20.455C23.1077 20.4044 23.0908 20.3537 23.0654 20.2947C21.8834 20.2947 20.7013 20.2947 19.5193 20.2947C19.5699 20.6153 19.629 20.9274 19.6628 21.2396C19.8148 22.5136 19.553 23.72 19.038 24.8758C18.6496 25.7448 18.1515 26.5548 17.6111 27.3394C17.5773 27.39 17.4929 27.4322 17.4338 27.4322C16.7161 27.4406 15.9984 27.4406 15.2301 27.4406C15.3821 27.2297 15.5087 27.0441 15.6438 26.8501C16.2433 25.998 16.8259 25.1374 17.2396 24.1756C17.7631 22.9607 17.8897 21.7289 17.4929 20.455C17.4591 20.3622 17.4422 20.2862 17.3071 20.2862C16.1842 20.2947 15.0612 20.2947 13.9298 20.2947C13.9129 20.2947 13.9045 20.3031 13.8792 20.3031C13.9298 20.5984 13.9805 20.9021 14.0227 21.1974C14.1747 22.4545 13.9383 23.6525 13.4317 24.7999C13.0348 25.7027 12.5282 26.5295 11.971 27.3394C11.9372 27.39 11.8697 27.4322 11.8106 27.4322C11.0844 27.4406 10.3583 27.4406 9.59001 27.4406C9.65755 27.3478 9.69977 27.2803 9.74198 27.2128C10.3583 26.3439 10.9747 25.4833 11.4391 24.5215C11.8697 23.6357 12.1483 22.7076 12.0723 21.7121C12.0385 21.2902 11.9288 20.8768 11.8612 20.4634C11.8359 20.3116 11.7515 20.2778 11.6079 20.2778C8.93142 20.2863 6.25491 20.2778 3.58684 20.2778C1.98262 20.2778 0.775237 19.2823 0.47128 17.7046C0.44595 17.5612 0.4375 17.4178 0.4375 17.2743C0.4375 12.6341 0.4375 7.99389 0.4375 3.35367C0.4375 1.74224 1.79688 0.375488 3.40954 0.375488C12.41 0.375488 21.419 0.375488 30.4195 0.375488C32.0659 0.375488 33.4253 1.71693 33.4337 3.37898C33.4422 5.37005 33.4337 7.36956 33.4337 9.36064C33.4337 11.9507 33.4337 14.5408 33.4337 17.1309C33.4337 18.6917 32.4712 19.8897 30.943 20.2103C30.7403 20.2525 30.5208 20.2694 30.3097 20.2694C28.6549 20.2778 27.0084 20.2694 25.3535 20.2694C25.286 20.2778 25.2185 20.2778 25.1847 20.2778ZM14.7235 12.6257C15.4412 10.7443 16.1504 8.88818 16.8765 6.98991C17.5942 8.89662 18.3034 10.7527 19.0127 12.6341C18.6496 12.6341 18.3203 12.6257 17.991 12.6425C17.9319 12.6425 17.8306 12.71 17.8222 12.7607C17.6111 13.7815 17.5098 14.8192 17.7969 15.8316C18.0164 16.5909 18.3541 17.3165 18.6327 18.0589C18.6834 18.2024 18.7678 18.2446 18.9198 18.2446C19.9414 18.2361 20.9631 18.2446 21.9847 18.2446C22.0438 18.2446 22.1029 18.2361 22.1958 18.2361C21.8243 17.3418 21.4021 16.4897 21.3261 15.5195C21.2501 14.5577 21.267 13.6043 21.4781 12.6425C21.0897 12.6425 20.7351 12.6425 20.3467 12.6425C21.0644 10.7527 21.7736 8.8966 22.4997 6.99833C23.2174 8.90504 23.9182 10.7611 24.6359 12.6425C24.2728 12.6425 23.952 12.6341 23.6227 12.651C23.5636 12.651 23.4623 12.7185 23.4454 12.7607C23.2512 13.7309 23.1752 14.7011 23.3778 15.6714C23.5467 16.4982 23.9351 17.2406 24.239 18.0168C24.3066 18.1939 24.391 18.253 24.5852 18.253C26.4765 18.2446 28.3678 18.2446 30.2591 18.2446C31.019 18.2446 31.4327 17.8396 31.4327 17.0803C31.4327 12.5666 31.4327 8.05294 31.4327 3.53083C31.4327 2.77996 31.019 2.375 30.276 2.375C21.3852 2.375 12.5029 2.37499 3.61217 2.36655C2.93671 2.36655 2.447 2.83058 2.447 3.53083C2.45544 8.0445 2.45545 12.5582 2.45545 17.0803C2.45545 17.8227 2.87761 18.2446 3.61217 18.2446C5.96784 18.2446 8.33195 18.2446 10.6876 18.2446C10.7552 18.2446 10.8311 18.2361 10.9662 18.2361C9.96149 16.456 9.81797 14.583 10.2148 12.6341C9.82641 12.6341 9.4718 12.6341 9.08341 12.6341C9.80109 10.7527 10.5103 8.8966 11.2364 6.99833C11.9541 8.8966 12.6549 10.7527 13.3726 12.6425C13.0095 12.6425 12.6887 12.6425 12.3594 12.6425C12.2581 12.6425 12.1905 12.6678 12.1736 12.7775C11.9794 13.7984 11.8697 14.8361 12.1652 15.8485C12.3932 16.6078 12.7224 17.3334 13.0011 18.0758C13.0517 18.2192 13.1362 18.253 13.2797 18.253C14.3098 18.2446 15.3399 18.253 16.3615 18.253C16.4206 18.253 16.4797 18.2446 16.5979 18.2361C15.5932 16.456 15.4496 14.5914 15.8464 12.6425C15.4665 12.6257 15.1119 12.6257 14.7235 12.6257Z" fill="#081C3D"/>
</svg>
